<svg width="24" height="24" viewBox="0 0 24 24" fill="none" xmlns="http://www.w3.org/2000/svg">
<path fill-rule="evenodd" clip-rule="evenodd" d="M19.0904 7.00833C19.362 7.05828 19.5417 7.31893 19.4918 7.59048C18.7629 11.5547 17.0033 14.3036 14.5238 16.0513C12.0559 17.7908 8.92925 18.5001 5.52615 18.5001H3.5C3.22386 18.5001 3 18.2762 3 18.0001C3 17.7239 3.22386 17.5001 3.5 17.5001H5.52615C8.80185 17.5001 11.703 16.816 13.9477 15.2339C16.1808 13.6599 17.8189 11.1587 18.5082 7.40968C18.5582 7.13808 18.8189 6.95838 19.0904 7.00833Z" fill="white"/>
<path fill-rule="evenodd" clip-rule="evenodd" d="M19.3079 6.51472C19.4465 6.54912 19.5638 6.64112 19.6302 6.76762L20.9427 9.26762C21.0711 9.51212 20.977 9.81437 20.7325 9.94272C20.488 10.0711 20.1857 9.97692 20.0573 9.73242L19.0063 7.73052L17.2828 8.91237C17.055 9.06857 16.7438 9.01052 16.5877 8.78277C16.4315 8.55502 16.4895 8.24382 16.7173 8.08767L18.9048 6.58767C19.0226 6.50687 19.1693 6.48032 19.3079 6.51472Z" fill="white"/>
<path fill-rule="evenodd" clip-rule="evenodd" d="M4 3V20H21V21H3.5C3.22386 21 3 20.7761 3 20.5V3H4Z" fill="white"/>
<path fill-rule="evenodd" clip-rule="evenodd" d="M8.53625 3.36961C8.7729 3.13295 9.0939 3 9.42855 3H10.5715C10.9061 3 11.2271 3.13295 11.4637 3.36961C11.7004 3.60626 11.8334 3.92723 11.8334 4.26191V5.66665H13.2381C13.5728 5.66665 13.8937 5.7996 14.1304 6.03625C14.3671 6.2729 14.5 6.5939 14.5 6.92855V8.07145C14.5 8.4061 14.3671 8.7271 14.1304 8.96375C13.8937 9.2004 13.5728 9.33335 13.2381 9.33335H11.8334V10.7381C11.8334 11.0728 11.7004 11.3937 11.4637 11.6304C11.2271 11.8671 10.9061 12 10.5715 12H9.42855C9.0939 12 8.7729 11.8671 8.53625 11.6304C8.2996 11.3937 8.16665 11.0728 8.16665 10.7381V9.33335H6.7619C6.42725 9.33335 6.10625 9.2004 5.8696 8.96375C5.63295 8.7271 5.5 8.4061 5.5 8.07145V6.92855C5.5 6.5939 5.63295 6.2729 5.8696 6.03625C6.10625 5.7996 6.42725 5.66665 6.7619 5.66665H8.16665V4.26191C8.16665 3.92723 8.2996 3.60626 8.53625 3.36961ZM9.42855 4C9.3591 4 9.2925 4.0276 9.2434 4.07671C9.19425 4.12583 9.16665 4.19245 9.16665 4.26191V6.16665C9.16665 6.4428 8.9428 6.66665 8.66665 6.66665H6.7619C6.69245 6.66665 6.62585 6.69425 6.5767 6.7434C6.5276 6.7925 6.5 6.8591 6.5 6.92855V8.07145C6.5 8.1409 6.5276 8.2075 6.5767 8.2566C6.62585 8.30575 6.69245 8.33335 6.7619 8.33335H8.66665C8.9428 8.33335 9.16665 8.5572 9.16665 8.83335V10.7381C9.16665 10.8075 9.19425 10.8741 9.2434 10.9233C9.2925 10.9724 9.3591 11 9.42855 11H10.5715C10.6409 11 10.7075 10.9724 10.7566 10.9233C10.8058 10.8741 10.8334 10.8075 10.8334 10.7381V8.83335C10.8334 8.5572 11.0572 8.33335 11.3334 8.33335H13.2381C13.3075 8.33335 13.3741 8.30575 13.4233 8.2566C13.4724 8.2075 13.5 8.1409 13.5 8.07145V6.92855C13.5 6.8591 13.4724 6.7925 13.4233 6.7434C13.3741 6.69425 13.3075 6.66665 13.2381 6.66665H11.3334C11.0572 6.66665 10.8334 6.4428 10.8334 6.16665V4.26191C10.8334 4.19245 10.8058 4.12583 10.7566 4.07671C10.7075 4.0276 10.6409 4 10.5715 4H9.42855Z" fill="white"/>
</svg>
