<svg width="23" height="23" viewBox="0 0 23 23" fill="none" xmlns="http://www.w3.org/2000/svg">
<path d="M11.5 6.70833V11.5H16.2917M11.5 20.125C10.3673 20.125 9.24579 19.9019 8.19936 19.4685C7.15292 19.035 6.20211 18.3997 5.4012 17.5988C4.6003 16.7979 3.96499 15.8471 3.53154 14.8006C3.09809 13.7542 2.875 12.6327 2.875 11.5C2.875 10.3673 3.09809 9.24579 3.53154 8.19936C3.96499 7.15292 4.6003 6.20211 5.4012 5.4012C6.20211 4.6003 7.15292 3.96499 8.19936 3.53154C9.24579 3.09809 10.3673 2.875 11.5 2.875C13.7875 2.875 15.9813 3.7837 17.5988 5.4012C19.2163 7.0187 20.125 9.21251 20.125 11.5C20.125 13.7875 19.2163 15.9813 17.5988 17.5988C15.9813 19.2163 13.7875 20.125 11.5 20.125Z" stroke="#7A7A7A" stroke-width="2" stroke-linecap="round" stroke-linejoin="round"/>
</svg>
