<svg width="14" height="14" viewBox="0 0 14 14" fill="none" xmlns="http://www.w3.org/2000/svg">
<path d="M12.5628 10.4375H11.4644C11.3894 10.4375 11.3191 10.4703 11.2722 10.5281C11.1628 10.661 11.0457 10.7891 10.9222 10.911C10.4174 11.4163 9.81936 11.8191 9.16128 12.0969C8.4795 12.3849 7.7467 12.5326 7.0066 12.5313C6.25816 12.5313 5.53316 12.3844 4.85191 12.0969C4.19383 11.8191 3.59583 11.4163 3.09097 10.911C2.58522 10.4073 2.18194 9.81035 1.90347 9.15315C1.61441 8.4719 1.4691 7.74846 1.4691 7.00002C1.4691 6.25159 1.61597 5.52815 1.90347 4.8469C2.1816 4.18909 2.5816 3.5969 3.09097 3.08909C3.60035 2.58127 4.19254 2.18127 4.85191 1.90315C5.53316 1.61565 6.25816 1.46877 7.0066 1.46877C7.75504 1.46877 8.48003 1.61409 9.16128 1.90315C9.82066 2.18127 10.4128 2.58127 10.9222 3.08909C11.0457 3.21252 11.1613 3.34065 11.2722 3.4719C11.3191 3.52971 11.391 3.56252 11.4644 3.56252H12.5628C12.6613 3.56252 12.7222 3.45315 12.6675 3.37034C11.4691 1.50784 9.37222 0.275024 6.98941 0.281274C3.24566 0.290649 0.244098 3.32971 0.281598 7.06877C0.319098 10.7485 3.31597 13.7188 7.0066 13.7188C9.38316 13.7188 11.4707 12.4875 12.6675 10.6297C12.7207 10.5469 12.6613 10.4375 12.5628 10.4375ZM13.9519 6.90159L11.7347 5.15159C11.6519 5.08596 11.5316 5.14534 11.5316 5.25002V6.43752H6.62535C6.5566 6.43752 6.50035 6.49377 6.50035 6.56252V7.43752C6.50035 7.50627 6.5566 7.56252 6.62535 7.56252H11.5316V8.75002C11.5316 8.85471 11.6535 8.91409 11.7347 8.84846L13.9519 7.09846C13.9669 7.08677 13.9789 7.07183 13.9872 7.05477C13.9956 7.03772 13.9999 7.019 13.9999 7.00002C13.9999 6.98105 13.9956 6.96233 13.9872 6.94527C13.9789 6.92822 13.9669 6.91328 13.9519 6.90159Z" fill="#31546B"/>
</svg>
