<svg width="24" height="27" viewBox="0 0 24 27" fill="none" xmlns="http://www.w3.org/2000/svg">
<path d="M12 2.25C12.7956 2.25 13.5587 2.60558 14.1213 3.23851C14.6839 3.87145 15 4.72989 15 5.625V12.375C15 13.2701 14.6839 14.1286 14.1213 14.7615C13.5587 15.3944 12.7956 15.75 12 15.75C11.2044 15.75 10.4413 15.3944 9.87868 14.7615C9.31607 14.1286 9 13.2701 9 12.375V5.625C9 4.72989 9.31607 3.87145 9.87868 3.23851C10.4413 2.60558 11.2044 2.25 12 2.25ZM19 12.375C19 16.3462 16.39 19.62 13 20.1712V23.625H11V20.1712C7.61 19.62 5 16.3462 5 12.375H7C7 13.8668 7.52678 15.2976 8.46447 16.3525C9.40215 17.4074 10.6739 18 12 18C13.3261 18 14.5979 17.4074 15.5355 16.3525C16.4732 15.2976 17 13.8668 17 12.375H19Z" fill="black"/>
</svg>
