<svg width="24" height="24" viewBox="0 0 24 24" fill="none" xmlns="http://www.w3.org/2000/svg">
<path d="M10.2012 11.1016C10.6985 11.1016 11.1016 10.6985 11.1016 10.2012C11.1016 9.70393 10.6985 9.30078 10.2012 9.30078C9.70388 9.30078 9.30078 9.70393 9.30078 10.2012C9.30078 10.6985 9.70388 11.1016 10.2012 11.1016Z" fill="white"/>
<path fill-rule="evenodd" clip-rule="evenodd" d="M5.7047 15.0042V21H14.2609V17.744H16.4074C16.5414 17.744 16.6693 17.7176 16.7861 17.6698L15.5956 16.744H13.2609V20H6.7047V14.6009L6.42495 14.3105C5.6039 13.458 4.00003 11.4657 4 8.9875C3.99999 8.17225 4.30767 6.92425 5.23285 5.8927C6.0497 4.98199 7.4195 4.1602 9.70155 4.02077V7.54635C8.44895 7.7808 7.501 8.87985 7.501 10.2002C7.501 11.6913 8.71005 12.9002 10.2015 12.9002C10.7691 12.9002 11.2959 12.7252 11.7306 12.4261L18.7659 17.8873C18.7551 17.9499 18.7495 18.0143 18.7495 18.08C18.7495 18.7014 19.2533 19.2052 19.8748 19.2052C20.4962 19.2052 21 18.7014 21 18.08C21 17.4585 20.4962 16.9547 19.8748 16.9547C19.6882 16.9547 19.5122 17.0001 19.3573 17.0805L12.4402 11.7109C12.7318 11.2797 12.9022 10.7599 12.9022 10.2002C12.9022 8.8798 11.9541 7.7808 10.7015 7.54635V4.00272C11.9729 4.02596 12.854 4.19658 13.5205 4.44639C14.2266 4.71106 14.7499 5.086 15.2774 5.5751L15.3483 5.64085C15.8656 6.1202 16.0198 6.2631 16.107 6.49555C16.7583 8.23035 17.6643 10.6424 18.2236 12.1308H16.4074V13.575L17.4074 14.3526V13.1308H18.2236C18.9221 13.1308 19.4059 12.4342 19.1602 11.7804C18.601 10.2921 17.6945 7.8793 17.0432 6.1441C16.8687 5.6793 16.5308 5.3689 16.1059 4.97875C16.0574 4.93427 16.0079 4.88875 15.9573 4.84184C14.7756 3.74609 13.4295 3 10.399 3C4.5028 3 2.99998 6.9376 3 8.9875C3.00004 11.871 4.84156 14.108 5.7047 15.0042ZM10.2015 11.9002C11.1409 11.9002 11.9022 11.1389 11.9022 10.2002C11.9022 9.2615 11.1409 8.5002 10.2015 8.5002C9.26215 8.5002 8.501 9.2615 8.501 10.2002C8.501 11.1389 9.26215 11.9002 10.2015 11.9002Z" fill="white"/>
</svg>
