<svg width="24" height="24" viewBox="0 0 24 24" fill="none" xmlns="http://www.w3.org/2000/svg">
<path d="M3.0544 12C3.27839 9.96515 4.18157 8.13455 5.5325 6.73965L7.0607 8.26775L7.7678 7.56065L6.2674 6.06035C7.7043 4.87251 9.5166 4.12219 11.5 4.01365V6.5H12.5V4.01365C14.4834 4.12218 16.2958 4.87252 17.7327 6.0604L16.2929 7.49995L17 8.2071L18.4676 6.7397C19.8185 8.1346 20.7216 9.96515 20.9456 12H18.8421V13H21C20.9988 15.1701 20.229 17.16 18.947 18.7134L17.2368 17.0033L16.5297 17.7104L18.2683 19.449L18.2619 19.4552L18.9576 20.1735C20.8331 18.3574 22 15.8118 22 12.9946C22 7.4745 17.5226 3 12 3C6.4774 3 2 7.4745 2 12.9946C2 15.7371 3.10581 18.2223 4.89485 20.0277L5.60515 19.3237C5.602 19.3206 5.5989 19.3175 5.59575 19.3143L7.09835 17.8116L6.39125 17.1045L4.93208 18.5637C3.72282 17.0331 3.00123 15.1011 3 13H5.02635V12H3.0544Z" fill="white"/>
<path fill-rule="evenodd" clip-rule="evenodd" d="M17.7419 14.311L10.7605 14.9551C10.5675 14.9921 10.3946 15.0984 10.2743 15.2539L9.45506 16.4686C9.36386 17.0756 9.42856 17.3171 9.78741 17.7089L11.1042 18.3511C11.2861 18.4257 11.489 18.4313 11.6747 18.3669L18.0325 15.4307C18.9783 15.1026 18.725 14.1223 17.7419 14.311ZM11.41 17.3877L15.437 15.5279L11.021 15.9353L10.42 16.8264C10.4174 16.867 10.4178 16.8911 10.4185 16.9038L11.41 17.3877ZM10.4109 16.8909C10.411 16.891 10.4119 16.8924 10.413 16.895C10.4114 16.8922 10.4108 16.8909 10.4109 16.8909ZM17.9827 15.2871C17.9827 15.2871 17.9828 15.2871 17.9827 15.2871V15.2871ZM17.7533 14.465L17.7547 14.4641C17.7547 14.4641 17.7543 14.4645 17.7533 14.465Z" fill="white"/>
</svg>
