<svg width="24" height="24" viewBox="0 0 24 24" fill="none" xmlns="http://www.w3.org/2000/svg">
<path d="M21.4289 4.28516H2.57171C1.62493 4.28516 0.857422 5.05268 0.857422 5.99944V17.9994C0.857422 18.9462 1.62493 19.7137 2.57171 19.7137H21.4289C22.3757 19.7137 23.1431 18.9462 23.1431 17.9994V5.99944C23.1431 5.05268 22.3757 4.28516 21.4289 4.28516Z" stroke="white" stroke-linecap="round" stroke-linejoin="round"/>
<path d="M12.0008 15.4275C13.8944 15.4275 15.4294 13.8924 15.4294 11.9989C15.4294 10.1053 13.8944 8.57031 12.0008 8.57031C10.1073 8.57031 8.57227 10.1053 8.57227 11.9989C8.57227 13.8924 10.1073 15.4275 12.0008 15.4275Z" stroke="white" stroke-linecap="round" stroke-linejoin="round"/>
<path d="M4.7567 12.4275C4.52 12.4275 4.32812 12.2356 4.32812 11.9989C4.32812 11.7622 4.52 11.5703 4.7567 11.5703" stroke="white" stroke-linecap="round" stroke-linejoin="round"/>
<path d="M4.75586 12.4275C4.99255 12.4275 5.18443 12.2356 5.18443 11.9989C5.18443 11.7622 4.99255 11.5703 4.75586 11.5703" stroke="white" stroke-linecap="round" stroke-linejoin="round"/>
<path d="M19.243 12.4275C19.0063 12.4275 18.8145 12.2356 18.8145 11.9989C18.8145 11.7622 19.0063 11.5703 19.243 11.5703" stroke="white" stroke-linecap="round" stroke-linejoin="round"/>
<path d="M19.2422 12.4275C19.4789 12.4275 19.6708 12.2356 19.6708 11.9989C19.6708 11.7622 19.4789 11.5703 19.2422 11.5703" stroke="white" stroke-linecap="round" stroke-linejoin="round"/>
</svg>
