<svg width="24" height="24" viewBox="0 0 24 24" fill="none" xmlns="http://www.w3.org/2000/svg">
<g clip-path="url(#clip0_2634_4986)">
<path d="M12.0006 13.714C14.3675 13.714 16.2863 11.7952 16.2863 9.42829C16.2863 7.06136 14.3675 5.14258 12.0006 5.14258C9.63363 5.14258 7.71484 7.06136 7.71484 9.42829C7.71484 11.7952 9.63363 13.714 12.0006 13.714Z" stroke="white" stroke-linecap="round" stroke-linejoin="round"/>
<path d="M4.67969 20.4011C5.44467 19.1453 6.51982 18.1075 7.80176 17.3875C9.0837 16.6673 10.5293 16.2891 11.9997 16.2891C13.47 16.2891 14.9157 16.6673 16.1976 17.3875C17.4796 18.1075 18.5546 19.1453 19.3197 20.4011" stroke="white" stroke-linecap="round" stroke-linejoin="round"/>
<path d="M12.0003 23.1431C18.1544 23.1431 23.1431 18.1544 23.1431 12.0003C23.1431 5.84625 18.1544 0.857422 12.0003 0.857422C5.84625 0.857422 0.857422 5.84625 0.857422 12.0003C0.857422 18.1544 5.84625 23.1431 12.0003 23.1431Z" stroke="white" stroke-linecap="round" stroke-linejoin="round"/>
</g>
<defs>
<clipPath id="clip0_2634_4986">
<rect width="24" height="24" fill="white"/>
</clipPath>
</defs>
</svg>
