<svg width="24" height="24" viewBox="0 0 24 24" fill="none" xmlns="http://www.w3.org/2000/svg">
<g clip-path="url(#clip0_1893_660)">
<path d="M12.0028 12.4275C11.7661 12.4275 11.5742 12.2356 11.5742 11.9989C11.5742 11.7622 11.7661 11.5703 12.0028 11.5703" stroke="#31546B" stroke-linecap="round" stroke-linejoin="round"/>
<path d="M12.002 12.4275C12.2386 12.4275 12.4305 12.2356 12.4305 11.9989C12.4305 11.7622 12.2386 11.5703 12.002 11.5703" stroke="#31546B" stroke-linecap="round" stroke-linejoin="round"/>
<path d="M7.28795 12.4275C7.05125 12.4275 6.85938 12.2356 6.85938 11.9989C6.85938 11.7622 7.05125 11.5703 7.28795 11.5703" stroke="#31546B" stroke-linecap="round" stroke-linejoin="round"/>
<path d="M7.28711 12.4275C7.5238 12.4275 7.71568 12.2356 7.71568 11.9989C7.71568 11.7622 7.5238 11.5703 7.28711 11.5703" stroke="#31546B" stroke-linecap="round" stroke-linejoin="round"/>
<path d="M16.7176 12.4275C16.4809 12.4275 16.2891 12.2356 16.2891 11.9989C16.2891 11.7622 16.4809 11.5703 16.7176 11.5703" stroke="#31546B" stroke-linecap="round" stroke-linejoin="round"/>
<path d="M16.7168 12.4275C16.9535 12.4275 17.1455 12.2356 17.1455 11.9989C17.1455 11.7622 16.9535 11.5703 16.7168 11.5703" stroke="#31546B" stroke-linecap="round" stroke-linejoin="round"/>
<path d="M11.9963 0.960939C9.99944 0.961562 8.04014 1.5038 6.32709 2.52989C4.61406 3.55599 3.21141 5.02752 2.26856 6.78775C1.3257 8.54798 0.877941 10.531 0.972978 12.5256C1.06801 14.5202 1.70228 16.4516 2.80823 18.1142L0.957031 23.0395L7.15598 21.9185C8.64868 22.6479 10.2867 23.0311 11.9481 23.0393C13.6095 23.0475 15.2513 22.6807 16.7511 21.966C18.2509 21.2515 19.5702 20.2075 20.6103 18.912C21.6505 17.6167 22.3851 16.1031 22.7588 14.4844C23.1327 12.8656 23.1365 11.1833 22.7696 9.56294C22.4028 7.94254 21.675 6.42585 20.6405 5.1259C19.6059 3.82594 18.2912 2.77629 16.7945 2.05514C15.2978 1.33398 13.6577 0.959959 11.9963 0.960939Z" stroke="#31546B" stroke-linecap="round" stroke-linejoin="round"/>
</g>
<defs>
<clipPath id="clip0_1893_660">
<rect width="24" height="24" fill="white"/>
</clipPath>
</defs>
</svg>
