<svg width="24" height="24" viewBox="0 0 24 24" fill="none" xmlns="http://www.w3.org/2000/svg">
<rect width="24" height="24" fill="#1E1E1E"/>
<g id="daste bandi emkanat" clip-path="url(#clip0_97_365)">
<rect width="1512" height="859" transform="translate(-1459 -546)" fill="#FBFAF6"/>
<g id="Group 708">
<g id="Union">
<mask id="path-1-inside-1_97_365" fill="white">
<path fill-rule="evenodd" clip-rule="evenodd" d="M-1408.06 -471.04C-1408.05 -471.04 -1408.03 -471.052 -1408.03 -471.066C-1408.03 -471.081 -1408.02 -471.092 -1408.01 -471.093C-1396.12 -471.738 -1386.24 -479.948 -1383.1 -490.995C-1383.09 -491.006 -1383.08 -491.014 -1383.07 -491.014C-1383.06 -491.014 -1383.05 -491.025 -1383.05 -491.039C-1383.05 -491.082 -1383.04 -491.126 -1383.04 -491.17C-1383.04 -491.183 -1383.04 -491.195 -1383.04 -491.207C-1382.7 -492.44 -1382.44 -493.708 -1382.28 -495.003C-1382.14 -496.107 -1381.97 -497.215 -1381.55 -498.245C-1378.5 -505.727 -1371.15 -511 -1362.58 -511H-1214.67C-1203.58 -511 -1194.55 -502.18 -1194.21 -491.171C-1194.21 -491.084 -1194.14 -491.014 -1194.05 -491.014C-1193.97 -491.014 -1193.9 -490.955 -1193.89 -490.876C-1191.87 -477.392 -1180.24 -467.051 -1166.2 -467.051H-953.907C-941.869 -467.051 -931.604 -474.649 -927.648 -485.311C-927.346 -486.125 -927.18 -486.983 -927.028 -487.838C-924.994 -499.299 -914.982 -508.002 -902.937 -508.002H-186.469C-172.955 -508.002 -162 -497.046 -162 -483.532C-162 -483.215 -162.006 -482.9 -162.018 -482.587C-162.006 -482.397 -162 -482.206 -162 -482.014V-443.04V-416.118V-182V-143C-162 -137.477 -157.523 -133 -152 -133H-149H-126H-14C-2.95435 -133 6 -124.046 6 -113V-70C6 -58.9543 -2.95435 -50 -14 -50H-149C-154.564 -50 -162 -46.2116 -162 -40.6476V-8V30V269.003C-162 284.467 -174.536 297.003 -190 297.003H-1423C-1438.46 297.003 -1451 284.467 -1451 269.003V-443.04C-1451 -458.504 -1438.46 -471.04 -1423 -471.04H-1408.06Z"/>
</mask>
<path fill-rule="evenodd" clip-rule="evenodd" d="M-1408.06 -471.04C-1408.05 -471.04 -1408.03 -471.052 -1408.03 -471.066C-1408.03 -471.081 -1408.02 -471.092 -1408.01 -471.093C-1396.12 -471.738 -1386.24 -479.948 -1383.1 -490.995C-1383.09 -491.006 -1383.08 -491.014 -1383.07 -491.014C-1383.06 -491.014 -1383.05 -491.025 -1383.05 -491.039C-1383.05 -491.082 -1383.04 -491.126 -1383.04 -491.17C-1383.04 -491.183 -1383.04 -491.195 -1383.04 -491.207C-1382.7 -492.44 -1382.44 -493.708 -1382.28 -495.003C-1382.14 -496.107 -1381.97 -497.215 -1381.55 -498.245C-1378.5 -505.727 -1371.15 -511 -1362.58 -511H-1214.67C-1203.58 -511 -1194.55 -502.18 -1194.21 -491.171C-1194.21 -491.084 -1194.14 -491.014 -1194.05 -491.014C-1193.97 -491.014 -1193.9 -490.955 -1193.89 -490.876C-1191.87 -477.392 -1180.24 -467.051 -1166.2 -467.051H-953.907C-941.869 -467.051 -931.604 -474.649 -927.648 -485.311C-927.346 -486.125 -927.18 -486.983 -927.028 -487.838C-924.994 -499.299 -914.982 -508.002 -902.937 -508.002H-186.469C-172.955 -508.002 -162 -497.046 -162 -483.532C-162 -483.215 -162.006 -482.9 -162.018 -482.587C-162.006 -482.397 -162 -482.206 -162 -482.014V-443.04V-416.118V-182V-143C-162 -137.477 -157.523 -133 -152 -133H-149H-126H-14C-2.95435 -133 6 -124.046 6 -113V-70C6 -58.9543 -2.95435 -50 -14 -50H-149C-154.564 -50 -162 -46.2116 -162 -40.6476V-8V30V269.003C-162 284.467 -174.536 297.003 -190 297.003H-1423C-1438.46 297.003 -1451 284.467 -1451 269.003V-443.04C-1451 -458.504 -1438.46 -471.04 -1423 -471.04H-1408.06Z" fill="#F9F9F9"/>
<path d="M-162.018 -482.587L-163.017 -482.625L-163.019 -482.574L-163.016 -482.524L-162.018 -482.587ZM-1193.89 -490.876L-1194.88 -490.729L-1193.89 -490.876ZM-1194.21 -491.171L-1193.21 -491.202L-1194.21 -491.171ZM-1382.28 -495.003L-1381.28 -494.877L-1382.28 -495.003ZM-1381.55 -498.245L-1382.47 -498.623L-1381.55 -498.245ZM-1383.04 -491.17L-1384.04 -491.201L-1383.04 -491.17ZM-1383.04 -491.207L-1382.07 -490.942L-1383.04 -491.207ZM-1383.05 -491.039L-1382.05 -491.014L-1383.05 -491.039ZM-1383.1 -490.995L-1382.13 -490.722L-1383.1 -490.995ZM-927.648 -485.311L-928.585 -485.659L-927.648 -485.311ZM-927.028 -487.838L-926.044 -487.663L-927.028 -487.838ZM-1408.01 -471.093L-1407.95 -470.094L-1408.01 -471.093ZM-1384.06 -491.269C-1387.08 -480.623 -1396.61 -472.713 -1408.06 -472.091L-1407.95 -470.094C-1395.63 -470.763 -1385.39 -479.273 -1382.13 -490.722L-1384.06 -491.269ZM-1384.04 -491.201C-1384.04 -491.155 -1384.04 -491.109 -1384.05 -491.063L-1382.05 -491.014C-1382.05 -491.056 -1382.04 -491.097 -1382.04 -491.139L-1384.04 -491.201ZM-1383.27 -495.13C-1383.43 -493.882 -1383.67 -492.66 -1384 -491.473L-1382.07 -490.942C-1381.72 -492.22 -1381.46 -493.534 -1381.28 -494.877L-1383.27 -495.13ZM-1362.58 -512C-1371.58 -512 -1379.28 -506.467 -1382.47 -498.623L-1380.62 -497.868C-1377.72 -504.986 -1370.73 -510 -1362.58 -510V-512ZM-1214.67 -512H-1362.58V-510H-1214.67V-512ZM-1193.21 -491.202C-1193.57 -502.749 -1203.04 -512 -1214.67 -512V-510C-1204.12 -510 -1195.53 -501.611 -1195.21 -491.14L-1193.21 -491.202ZM-1166.2 -468.051C-1179.74 -468.051 -1190.96 -478.023 -1192.9 -491.024L-1194.88 -490.729C-1192.79 -476.762 -1180.75 -466.051 -1166.2 -466.051V-468.051ZM-953.907 -468.051H-1166.2V-466.051H-953.907V-468.051ZM-928.585 -485.659C-932.401 -475.376 -942.3 -468.051 -953.907 -468.051V-466.051C-941.437 -466.051 -930.807 -473.922 -926.71 -484.963L-928.585 -485.659ZM-902.937 -509.002C-915.475 -509.002 -925.895 -499.943 -928.013 -488.013L-926.044 -487.663C-924.092 -498.655 -914.488 -507.002 -902.937 -507.002V-509.002ZM-186.469 -509.002H-902.937V-507.002H-186.469V-509.002ZM-161 -483.532C-161 -497.598 -172.403 -509.002 -186.469 -509.002V-507.002C-173.508 -507.002 -163 -496.494 -163 -483.532H-161ZM-161.019 -482.548C-161.006 -482.875 -161 -483.203 -161 -483.532H-163C-163 -483.228 -163.006 -482.926 -163.017 -482.625L-161.019 -482.548ZM-161 -482.014C-161 -482.227 -161.007 -482.439 -161.02 -482.649L-163.016 -482.524C-163.005 -482.355 -163 -482.185 -163 -482.014H-161ZM-161 -443.04V-482.014H-163V-443.04H-161ZM-161 -416.118V-443.04H-163V-416.118H-161ZM-161 -182V-416.118H-163V-182H-161ZM-161 -143V-182H-163V-143H-161ZM-149 -134H-152V-132H-149V-134ZM-149 -132H-126V-134H-149V-132ZM-126 -132H-14V-134H-126V-132ZM-14 -132C-3.50659 -132 5 -123.493 5 -113H7C7 -124.598 -2.4021 -134 -14 -134V-132ZM5 -113V-70H7V-113H5ZM5 -70C5 -59.5066 -3.50659 -51 -14 -51V-49C-2.4021 -49 7 -58.402 7 -70H5ZM-14 -51H-149V-49H-14V-51ZM-161 -8V-40.6476H-163V-8H-161ZM-161 30V-8H-163V30H-161ZM-161 269.003V30H-163V269.003H-161ZM-190 298.003C-173.984 298.003 -161 285.019 -161 269.003H-163C-163 283.915 -175.088 296.003 -190 296.003V298.003ZM-1423 298.003H-190V296.003H-1423V298.003ZM-1452 269.003C-1452 285.019 -1439.02 298.003 -1423 298.003V296.003C-1437.91 296.003 -1450 283.915 -1450 269.003H-1452ZM-1452 -443.04V269.003H-1450V-443.04H-1452ZM-1423 -472.04C-1439.02 -472.04 -1452 -459.056 -1452 -443.04H-1450C-1450 -457.952 -1437.91 -470.04 -1423 -470.04V-472.04ZM-1408.06 -472.04H-1423V-470.04H-1408.06V-472.04ZM-1194.05 -490.014C-1194.47 -490.014 -1194.82 -490.324 -1194.88 -490.729L-1192.9 -491.024C-1192.99 -491.586 -1193.47 -492.014 -1194.05 -492.014V-490.014ZM-149 -51C-151.98 -51 -155.417 -49.9942 -158.127 -48.2514C-160.823 -46.518 -163 -43.9122 -163 -40.6476H-161C-161 -42.9469 -159.459 -45.0174 -157.046 -46.5692C-154.647 -48.1115 -151.584 -49 -149 -49V-51ZM-1195.21 -491.14C-1195.19 -490.524 -1194.69 -490.014 -1194.05 -490.014V-492.014C-1193.58 -492.014 -1193.22 -491.644 -1193.21 -491.202L-1195.21 -491.14ZM-1381.28 -494.877C-1381.14 -495.98 -1380.99 -496.971 -1380.62 -497.868L-1382.47 -498.623C-1382.95 -497.459 -1383.13 -496.234 -1383.27 -495.13L-1381.28 -494.877ZM-1382.04 -491.139C-1382.05 -491.072 -1382.06 -491.005 -1382.07 -490.942L-1384 -491.473C-1384.03 -491.385 -1384.04 -491.294 -1384.04 -491.201L-1382.04 -491.139ZM-1383.07 -490.014C-1382.51 -490.014 -1382.06 -490.459 -1382.05 -491.014L-1384.05 -491.063C-1384.03 -491.591 -1383.6 -492.014 -1383.07 -492.014V-490.014ZM-1382.13 -490.722C-1382.25 -490.305 -1382.63 -490.014 -1383.07 -490.014V-492.014C-1383.53 -492.014 -1383.93 -491.707 -1384.06 -491.269L-1382.13 -490.722ZM-926.71 -484.963C-926.373 -485.871 -926.196 -486.809 -926.044 -487.663L-928.013 -488.013C-928.165 -487.156 -928.318 -486.38 -928.585 -485.659L-926.71 -484.963ZM-1409.03 -471.066C-1409.03 -471.604 -1408.6 -472.04 -1408.06 -472.04V-470.04C-1407.49 -470.04 -1407.03 -470.5 -1407.03 -471.066H-1409.03ZM-163 -143C-163 -136.925 -158.075 -132 -152 -132V-134C-156.971 -134 -161 -138.029 -161 -143H-163ZM-1407.03 -471.066C-1407.03 -470.544 -1407.44 -470.122 -1407.95 -470.094L-1408.06 -472.091C-1408.6 -472.062 -1409.03 -471.617 -1409.03 -471.066H-1407.03Z" fill="#DBDBDB" mask="url(#path-1-inside-1_97_365)"/>
</g>
</g>
<g id="sidebar menu">
<rect id="Rectangle 949" x="-161" y="-528" width="230" height="842" fill="#FBFAF6"/>
<g id="Group 952">
<g id="Group 950">
<g id="news-paper--newspaper-periodical-fold-content-entertainment">
<g id="news-paper--newspaper-periodical-fold-content-entertainment_2">
<path id="Vector" d="M23.1431 7.71429V18.8571C23.1431 19.4254 22.9174 19.9706 22.5155 20.3724C22.1137 20.7742 21.5686 21 21.0003 21M21.0003 21C20.432 21 19.8869 20.7742 19.485 20.3724C19.0832 19.9706 18.8574 19.4254 18.8574 18.8571V3.85714C18.8574 3.62981 18.7671 3.41179 18.6064 3.25106C18.4456 3.09031 18.2276 3 18.0003 3H1.71456C1.48724 3 1.26922 3.09031 1.10847 3.25106C0.947727 3.41179 0.857422 3.62981 0.857422 3.85714V19.2857C0.857422 19.7403 1.03803 20.1765 1.35952 20.4979C1.68102 20.8193 2.11704 21 2.57171 21H21.0003Z" stroke="#354D5A" stroke-linecap="round" stroke-linejoin="round"/>
<path id="Vector_2" d="M13.7143 7.28516H6V11.5709H13.7143V7.28516Z" stroke="#354D5A" stroke-linecap="round" stroke-linejoin="round"/>
<path id="Vector_3" d="M6 16.7148H13.7143" stroke="#354D5A" stroke-linecap="round" stroke-linejoin="round"/>
</g>
</g>
</g>
</g>
</g>
</g>
<defs>
<clipPath id="clip0_97_365">
<rect width="1512" height="859" fill="white" transform="translate(-1459 -546)"/>
</clipPath>
</defs>
</svg>
