<svg width="24" height="24" viewBox="0 0 24 24" fill="none" xmlns="http://www.w3.org/2000/svg">
<path d="M23.1431 7.71429V18.8571C23.1431 19.4254 22.9174 19.9706 22.5155 20.3724C22.1137 20.7742 21.5686 21 21.0003 21M21.0003 21C20.432 21 19.8869 20.7742 19.485 20.3724C19.0832 19.9706 18.8574 19.4254 18.8574 18.8571V3.85714C18.8574 3.62981 18.7671 3.41179 18.6064 3.25106C18.4456 3.09031 18.2276 3 18.0003 3H1.71456C1.48724 3 1.26922 3.09031 1.10847 3.25106C0.947727 3.41179 0.857422 3.62981 0.857422 3.85714V19.2857C0.857422 19.7403 1.03803 20.1765 1.35952 20.4979C1.68102 20.8193 2.11704 21 2.57171 21H21.0003Z" stroke="white" stroke-linecap="round" stroke-linejoin="round"/>
<path d="M13.7143 7.28516H6V11.5709H13.7143V7.28516Z" stroke="white" stroke-linecap="round" stroke-linejoin="round"/>
<path d="M6 16.7148H13.7143" stroke="white" stroke-linecap="round" stroke-linejoin="round"/>
</svg>
