<svg width="65" height="65" viewBox="0 0 65 65" fill="none" xmlns="http://www.w3.org/2000/svg">
<circle cx="32.5" cy="32.5" r="32.5" fill="#F42F55"/>
<path d="M32.1368 50.0116C27.2552 50.0116 23.2852 46.1812 23.2852 41.4759V28.6724C23.2852 23.9671 27.2552 20.1367 32.1368 20.1367C37.0185 20.1367 40.9885 23.9671 40.9885 28.6724V41.4759C40.9885 46.1812 37.0185 50.0116 32.1368 50.0116ZM32.1368 24.4046C29.696 24.4046 27.711 26.3166 27.711 28.6724V41.4759C27.711 43.8318 29.696 45.7438 32.1368 45.7438C34.5777 45.7438 36.5626 43.8318 36.5626 41.4759V28.6724C36.5626 26.3166 34.5777 24.4046 32.1368 24.4046ZM47.6272 41.4759V37.2081C47.6272 36.6421 47.394 36.0994 46.979 35.6992C46.564 35.299 46.0012 35.0742 45.4143 35.0742C44.8274 35.0742 44.2645 35.299 43.8495 35.6992C43.4345 36.0994 43.2014 36.6421 43.2014 37.2081V41.4759C43.2014 47.3592 38.2378 52.1455 32.1368 52.1455C26.0358 52.1455 21.0723 47.3592 21.0723 41.4759V37.2081C21.0723 36.6421 20.8392 36.0994 20.4242 35.6992C20.0092 35.299 19.4463 35.0742 18.8594 35.0742C18.2725 35.0742 17.7096 35.299 17.2946 35.6992C16.8796 36.0994 16.6465 36.6421 16.6465 37.2081V41.4759C16.6465 48.9873 22.4288 55.2013 29.9239 56.2427V58.5473H23.2852C22.6983 58.5473 22.1354 58.7721 21.7204 59.1723C21.3054 59.5725 21.0723 60.1153 21.0723 60.6812C21.0723 61.2472 21.3054 61.79 21.7204 62.1902C22.1354 62.5903 22.6983 62.8152 23.2852 62.8152H40.9885C41.5754 62.8152 42.1382 62.5903 42.5532 62.1902C42.9682 61.79 43.2014 61.2472 43.2014 60.6812C43.2014 60.1153 42.9682 59.5725 42.5532 59.1723C42.1382 58.7721 41.5754 58.5473 40.9885 58.5473H34.3497V56.2427C41.8448 55.2013 47.6272 48.9873 47.6272 41.4759Z" fill="white"/>
</svg>
