<svg width="35" height="31" viewBox="0 0 35 31" fill="none" xmlns="http://www.w3.org/2000/svg">
<path d="M24.0625 7.75V8.71875M24.0625 12.5937V13.5625M24.0625 17.4375V18.4062M24.0625 22.2812V23.25M10.9375 16.4687H18.5938M10.9375 19.375H15.3125M4.92188 6.78125C4.01625 6.78125 3.28125 7.43225 3.28125 8.23437V12.143C3.94734 12.4826 4.5006 12.9718 4.8853 13.5611C5.27 14.1505 5.47255 14.8192 5.47255 15.5C5.47255 16.1808 5.27 16.8495 4.8853 17.4389C4.5006 18.0282 3.94734 18.5174 3.28125 18.857V22.7656C3.28125 23.5677 4.01625 24.2187 4.92188 24.2187H30.0781C30.9838 24.2187 31.7188 23.5677 31.7188 22.7656V18.857C31.0527 18.5174 30.4994 18.0282 30.1147 17.4389C29.73 16.8495 29.5275 16.1808 29.5275 15.5C29.5275 14.8192 29.73 14.1505 30.1147 13.5611C30.4994 12.9718 31.0527 12.4826 31.7188 12.143V8.23437C31.7188 7.43225 30.9838 6.78125 30.0781 6.78125H4.92188Z" stroke="#898686" stroke-width="1.5" stroke-linecap="round" stroke-linejoin="round"/>
</svg>
