<svg width="16" height="16" viewBox="0 0 16 16" fill="none" xmlns="http://www.w3.org/2000/svg">
<g clip-path="url(#clip0_1893_594)">
<path d="M8.00167 9.14007C9.57963 9.14007 10.8588 7.86088 10.8588 6.28292C10.8588 4.70497 9.57963 3.42578 8.00167 3.42578C6.42372 3.42578 5.14453 4.70497 5.14453 6.28292C5.14453 7.86088 6.42372 9.14007 8.00167 9.14007Z" stroke="#31546B" stroke-linecap="round" stroke-linejoin="round"/>
<path d="M3.12109 13.6007C3.63108 12.7636 4.34785 12.0717 5.20248 11.5917C6.05711 11.1115 7.02085 10.8594 8.00109 10.8594C8.98133 10.8594 9.94508 11.1115 10.7997 11.5917C11.6544 12.0717 12.3711 12.7636 12.8811 13.6007" stroke="#31546B" stroke-linecap="round" stroke-linejoin="round"/>
<path d="M8.00084 15.4275C12.1036 15.4275 15.4294 12.1016 15.4294 7.99888C15.4294 3.8962 12.1036 0.570312 8.00084 0.570312C3.89815 0.570312 0.572266 3.8962 0.572266 7.99888C0.572266 12.1016 3.89815 15.4275 8.00084 15.4275Z" stroke="#31546B" stroke-linecap="round" stroke-linejoin="round"/>
</g>
<defs>
<clipPath id="clip0_1893_594">
<rect width="16" height="16" fill="white"/>
</clipPath>
</defs>
</svg>
