<svg width="11" height="25" viewBox="0 0 11 25" fill="none" xmlns="http://www.w3.org/2000/svg">
<path d="M11 4.6875V19.5312C11 20.2881 10.8568 20.9961 10.5703 21.6553C10.2839 22.3145 9.891 22.8923 9.39174 23.3887C8.89248 23.8851 8.31138 24.2757 7.64844 24.5605C6.98549 24.8454 6.26935 24.9919 5.5 25C4.73884 25 4.02679 24.8576 3.36384 24.5728C2.70089 24.2879 2.11979 23.8973 1.62054 23.4009C1.12128 22.9045 0.728423 22.3267 0.441964 21.6675C0.155506 21.0083 0.00818452 20.2962 0 19.5312V3.90625C0 3.36914 0.102307 2.86458 0.30692 2.39258C0.511533 1.92057 0.793899 1.5096 1.15402 1.15967C1.51414 0.809733 1.93155 0.528971 2.40625 0.317383C2.88095 0.105794 3.38839 0 3.92857 0C4.46875 0 4.97619 0.101725 5.45089 0.305176C5.9256 0.508626 6.33891 0.789388 6.69085 1.14746C7.04278 1.50553 7.32515 1.92057 7.53795 2.39258C7.75074 2.86458 7.85714 3.36914 7.85714 3.90625V19.5312C7.85714 19.8568 7.79576 20.1619 7.67299 20.4468C7.55022 20.7316 7.38244 20.9798 7.16964 21.1914C6.95685 21.403 6.70722 21.5698 6.42076 21.6919C6.1343 21.814 5.82738 21.875 5.5 21.875C5.17262 21.875 4.8657 21.814 4.57924 21.6919C4.29278 21.5698 4.04315 21.403 3.83036 21.1914C3.61756 20.9798 3.44978 20.7316 3.32701 20.4468C3.20424 20.1619 3.14286 19.8568 3.14286 19.5312V6.25H4.71429V19.5312C4.71429 19.7428 4.79204 19.9259 4.94754 20.0806C5.10305 20.2352 5.2872 20.3125 5.5 20.3125C5.7128 20.3125 5.89695 20.2352 6.05246 20.0806C6.20796 19.9259 6.28571 19.7428 6.28571 19.5312V3.90625C6.28571 3.58073 6.22433 3.27555 6.10156 2.99072C5.97879 2.70589 5.81101 2.45768 5.59821 2.24609C5.38542 2.03451 5.13579 1.86768 4.84933 1.74561C4.56287 1.62354 4.25595 1.5625 3.92857 1.5625C3.60119 1.5625 3.29427 1.62354 3.00781 1.74561C2.72135 1.86768 2.47173 2.03451 2.25893 2.24609C2.04613 2.45768 1.87835 2.70589 1.75558 2.99072C1.63281 3.27555 1.57143 3.58073 1.57143 3.90625V19.5312C1.57143 20.0684 1.67374 20.5729 1.87835 21.0449C2.08296 21.5169 2.36533 21.9279 2.72545 22.2778C3.08557 22.6278 3.50298 22.9085 3.97768 23.1201C4.45238 23.3317 4.95982 23.4375 5.5 23.4375C6.04018 23.4375 6.54762 23.3358 7.02232 23.1323C7.49702 22.9289 7.91034 22.6481 8.26228 22.29C8.61421 21.932 8.89658 21.5169 9.10938 21.0449C9.32217 20.5729 9.42857 20.0684 9.42857 19.5312V4.6875H11Z" fill="black"/>
</svg>
