<svg width="20" height="20" viewBox="0 0 20 20" fill="none" xmlns="http://www.w3.org/2000/svg">
<path d="M15.8757 4.09107C15.1117 3.31934 14.2016 2.70745 13.1987 2.29111C12.1957 1.87476 11.1199 1.66228 10.034 1.66607C5.48398 1.66607 1.77565 5.3744 1.77565 9.9244C1.77565 11.3827 2.15898 12.7994 2.87565 14.0494L1.70898 18.3327L6.08398 17.1827C7.29232 17.8411 8.65065 18.1911 10.034 18.1911C14.584 18.1911 18.2923 14.4827 18.2923 9.93273C18.2923 7.7244 17.434 5.6494 15.8757 4.09107ZM10.034 16.7911C8.80065 16.7911 7.59232 16.4577 6.53398 15.8327L6.28398 15.6827L3.68398 16.3661L4.37565 13.8327L4.20898 13.5744C3.52377 12.4802 3.15993 11.2154 3.15898 9.9244C3.15898 6.14106 6.24232 3.05773 10.0257 3.05773C11.859 3.05773 13.584 3.7744 14.8757 5.0744C15.5152 5.71103 16.0221 6.46828 16.3668 7.30225C16.7116 8.13622 16.8873 9.03032 16.884 9.93273C16.9007 13.7161 13.8173 16.7911 10.034 16.7911ZM13.8007 11.6577C13.5923 11.5577 12.5757 11.0577 12.3923 10.9827C12.2007 10.9161 12.0673 10.8827 11.9257 11.0827C11.784 11.2911 11.3923 11.7577 11.2757 11.8911C11.159 12.0327 11.034 12.0494 10.8257 11.9411C10.6173 11.8411 9.95065 11.6161 9.16732 10.9161C8.55065 10.3661 8.14232 9.69106 8.01732 9.48273C7.90065 9.2744 8.00065 9.16606 8.10898 9.05773C8.20065 8.96606 8.31732 8.81606 8.41732 8.6994C8.51732 8.58273 8.55898 8.49106 8.62565 8.35773C8.69232 8.21606 8.65898 8.0994 8.60898 7.9994C8.55898 7.8994 8.14232 6.88273 7.97565 6.46607C7.80898 6.06607 7.63398 6.11607 7.50898 6.10773H7.10898C6.96732 6.10773 6.75065 6.15773 6.55898 6.36607C6.37565 6.5744 5.84232 7.0744 5.84232 8.09107C5.84232 9.10773 6.58398 10.0911 6.68398 10.2244C6.78398 10.3661 8.14232 12.4494 10.209 13.3411C10.7007 13.5577 11.084 13.6827 11.384 13.7744C11.8757 13.9327 12.3257 13.9077 12.684 13.8577C13.084 13.7994 13.909 13.3577 14.0757 12.8744C14.2507 12.3911 14.2507 11.9827 14.1923 11.8911C14.134 11.7994 14.009 11.7577 13.8007 11.6577Z" fill="#CEB187"/>
</svg>
